<svg width="67" height="58" fill="none" xmlns="http://www.w3.org/2000/svg"><g clip-path="url(#a)" fill="#001E42"><path d="M31.8 4.3c0-.4-.2-.9-.4-1.2L30 .9C29.5.2 29 0 28.3 0H14.5c-1 0-1.7.2-2.1 1.2-.3.5-.8 1-1 1.6-.4.5-.8 1-.8 1.5v37.5c0 1.3.5 1.7 1.7 1.7H30c1.3 0 1.7-.4 1.7-1.7V4.3Zm-18.3 3c0-1.2.4-1.5 1.5-1.5h12.4c1.1 0 1.5.3 1.5 1.5v6.1c0 1.2-.4 1.6-1.6 1.6H15.1c-1.2 0-1.5-.4-1.6-1.5V7.3Zm7.6 34.3a2.8 2.8 0 1 1 .2-5.6c1.6.1 2.8 1.3 2.8 2.9 0 1.6-1.4 2.8-3 2.7Zm6.6-7.8H14.8c-1.1 0-1.3-.1-1.3-1.3 0-1.3.1-1.4 1.2-1.4h13c1.1 0 1.2.2 1.2 1.4s-.1 1.3-1.2 1.3Zm0-6h-13c-1.1 0-1.2-.6-1.2-1.4 0-1 .2-1.4 1.2-1.4h13c1.1 0 1.2.2 1.2 1.4s-.1 1.4-1.2 1.4Zm.1-6H14.6c-1 0-1-.6-1-1.3 0-.8 0-1.5 1-1.4h13.2c1 0 1.1.6 1.1 1.3 0 .8 0 1.4-1 1.3Z"/><path d="M65 43.2 56 39.5l-5.9-8h5.2c.8 0 1.5-.6 1.5-1.4.1-.8-.5-1.6-1.4-1.6H38a.5.5 0 0 1-.6-.5v-2c0-.7-.5-1.4-1.3-1.4-.8-.1-1.5.6-1.5 1.4v19.1c0 .5-.4.9-1 .9h-16a6.5 6.5 0 0 0-7 0H8a.8.8 0 0 1-.8-.8v-20c0-.3-.3-.6-.7-.6h-.3a6 6 0 0 0-6.1 6v20.7c0 .5.4.8.8.8h6.8a6.5 6.5 0 0 0 13 0H44a6.5 6.5 0 0 0 13 0h8.7c.7 0 1.2-.5 1.2-1.1v-5.5c0-1.7-2-2.3-2-2.3ZM16.3 54.7l-.2.2-.3.2h-.1l-.2.1a2.3 2.3 0 0 1-.4.1h-.1l-.2.1h-.4l-.4.1h-.8l-.1-.1a4.4 4.4 0 0 1-.8-.3L12 55l-.3-.2a4 4 0 1 1 4.6 0ZM40 40a.7.7 0 0 1-.6-.7v-5.9c0-.4.2-.7.6-.7h7.4c.2 0 .4.2.5.3l4.2 6c.3.4 0 1-.6 1H40Zm13 14.8-.3.2-.3.2a6.6 6.6 0 0 1-.6.2h-.2l-.2.1H51l-.3.1h-.8l-.2-.1h-.2l-.2-.1h-.1a6.6 6.6 0 0 1-.6-.3l-.3-.2a4 4 0 1 1 4.7 0Zm11.8-6.4c-.7 0-1.3-.7-1.3-1.7s.6-1.8 1.3-1.8c.7 0 1.3.8 1.3 1.8s-.6 1.7-1.3 1.7Z"/></g><defs><clipPath id="a"><path fill="#fff" d="M0 0h67v58H0z"/></clipPath></defs></svg>