<svg width="61" height="56" fill="none" xmlns="http://www.w3.org/2000/svg"><path d="M45.4 33.5c.4.2.7.5 1 .5a23.7 23.7 0 0 0 2.9 0H49v4.2h-9c-1.2 0-1.5.2-1.5 1.5v13.9c0 1.1.3 1.5 1.5 1.5h19c1.2 0 1.5-.3 1.5-1.6V39.8c0-1.4-.3-1.6-1.6-1.6h-7.8V34h3c1 0 1.3-.3 1.3-1.1v-2c0-.7-.3-1-1-1h-8.2c-.3 0-.6.4-.9.5-.2.2-.4.4-.6.4h-8.3c-.2 0-.5-.1-.6-.3-.2-.5-.6-.6-1.2-.6h-2.6c-.6 0-.6-.4-.6-.8v-2.6H45.8a8 8 0 0 0 2.6-15.6c.3-.9.5-1.9.5-3a8 8 0 0 0-14.4-4.6 8 8 0 0 0-7.6.4 8 8 0 0 0-11.7 6.8 8 8 0 0 0 .2 16h14.1v2.6c0 .4 0 .8-.6.8H27c-.5 0-.9.1-1 .6-.1.2-.4.3-.6.3H16l-.6-.3c-.3-.2-.6-.6-1-.6h-8c-.7 0-1 .3-1 1V33c0 .7.3 1 1 1a107.4 107.4 0 0 0 3.4 0h-.1v4H2c-1.3 0-1.6.4-1.6 1.6v13.9C.4 54.7.7 55 2 55h19c1.3 0 1.6-.3 1.6-1.6V39.8c0-1.3-.3-1.6-1.7-1.6H12V34h2.7c.3-.1.7-.3.8-.5.2-.4.5-.5.9-.5H25c.4 0 .6 0 .8.5.2.2.6.4.9.4H35c.3 0 .7-.2.8-.4.2-.4.5-.5.8-.5h8.2c.2 0 .4.3.6.4Zm11.3 6.8c1.5 0 2 .5 2 2V51c0 1.4-.6 2-2 2H42.4c-1.3 0-1.8-.6-1.8-1.9v-9c0-1.2.5-1.7 1.6-1.8h14.4Zm-38.2 0c1.5 0 2 .5 2 2V51c0 1.4-.5 2-2 2H4.2c-1.3 0-1.8-.6-1.8-1.9v-9c0-1.2.5-1.7 1.7-1.8h14.3Z" fill="#001E42"/></svg>