<svg width="71" height="55" fill="none" xmlns="http://www.w3.org/2000/svg"><path d="M55.8 10.6v.4-.4ZM40.8 29.5v-.8l-1.3-1.9-1 .7 1 1.6v.4H29.1v-4c.3-.3.5-.7.5-1.2 0-.9-.8-1.7-1.7-1.7a1.7 1.7 0 0 0-1.8 1.7c0 .5.2.9.5 1.2v1.6a11.3 11.3 0 0 0 5.1 4.6H41c1.2-.5 2.3-1.3 3.3-2.2h-3.5Zm-12.6-4.8-.1.1h-.5a.5.5 0 0 1 .2-1c.3 0 .6.3.6.5s0 .3-.2.4ZM43.5 39.9l-2.6.7v2c-.3.4-.4.8-.4 1.2 0 .5.2 1 .5 1.2a1.8 1.8 0 0 0 2.4 0c.4-.3.5-.7.5-1.2 0-.4-.1-.8-.4-1.1v-2.8Zm-1 4.2c0 .1-.1.2-.3.2-.2 0-.3 0-.4-.2l-.1-.3.1-.3.4-.2c.3 0 .5.2.5.5l-.1.3ZM35.3 41.1c-.9 0-1.7-.1-2.6-.3v1.9c-.3.3-.4.7-.5 1v.1a1.7 1.7 0 0 0 1.2 1.6v3.9c0 .2-.1.3-.3.3H0v1.2h33.1c.8 0 1.5-.7 1.5-1.5v-4c.6-.2 1.1-.8 1.1-1.5 0-.4-.1-.8-.4-1.1v-1.6ZM34 44.3a.5.5 0 0 1-.5-.5l.1-.4h.3c.4-.1.6.1.6.4 0 .3-.2.5-.5.5Z" fill="#001E42"/><path d="M1.3 43.6h13.6c1 0 1.3-.3 1.3-1.3v-7.6H20v1.9c0 1 .9 1.9 2 1.9h2.6v4.2c-.3.3-.4.7-.4 1v.1c0 .5.2 1 .5 1.2a1.7 1.7 0 0 0 3-1.2c0-.5-.2-.8-.5-1.1v-3.8a20 20 0 0 1-4-2.7h-.9v-.8a20 20 0 0 1-2.3-2.8v.9h-3.7V14c0-.3-.1-.7-.3-1-.3-.6-.8-1-1.2-1.7-.2-.4-.6-.6-1.1-.6H3c-.8 0-1.3.2-1.7.9l-.8 1.2c-.2.4-.5.8-.5 1.2v28.3c0 1 .3 1.3 1.3 1.3Zm24.1-.1.4-.2c.3 0 .5.2.5.5l-.1.3-.4.2c-.2 0-.3 0-.4-.2l-.1-.3.1-.3ZM8 42.2c-1.2 0-2.1-1-2-2.3 0-1.1 1-2 2.2-2 1.2.1 2.1 1 2 2.2 0 1.2-1 2.1-2.2 2Zm5-6H3.3c-.9 0-1 0-1-1 0-.9.1-1 1-1H13c.8 0 1 .1 1 1 0 1-.2 1-1 1Zm-10.8-20c0-.9.3-1.1 1.2-1.1h9.4c1 0 1.2.2 1.2 1.1V21c0 .9-.3 1.1-1.2 1.1H3.4c-.9 0-1.2-.3-1.2-1.1v-4.7Zm.9 8.9h10c.9 0 1 .5 1 1 0 .6-.2 1-1 1h-10c-.8 0-.9-.3-.9-1 0-.5 0-1 .9-1Zm0 4.5h10c.8 0 1 .2 1 1 0 1-.2 1.1-1 1.1H3c-.8 0-.9-.5-.9-1 0-.7.2-1 1-1ZM42.4 14.5h-5.8c-.7 0-.9.2-.9.8v2c0 .8.2 1 1 1h2.8v3.4a1.7 1.7 0 0 0-1.1 1.6c0 .9.6 1.6 1.4 1.7l1 1.6 1.1-.7-.8-1.2c.1 0 .2 0 .3-.2.3-.3.5-.7.5-1.2 0-.7-.5-1.3-1.1-1.6v-3.5H47a11 11 0 0 0-2-3.7h-2.7ZM37.9 17a.8.8 0 0 1-.7-.7c0-.5.3-.8.7-.8.5 0 .8.3.8.8 0 .4-.3.8-.8.7Zm2.6 6.6-.4.1a.5.5 0 0 1-.5-.5c0-.1 0-.3.2-.4l.3-.1c.3 0 .6.2.6.5 0 .2 0 .3-.2.4Zm.3-6.6a.8.8 0 0 1-.8-.8c0-.4.3-.7.8-.7.4 0 .7.3.7.8 0 .4-.3.7-.7.7Zm2.8 0c-.5 0-.9-.3-.9-.7 0-.4.4-.8.8-.8.5 0 .8.3.8.8 0 .4-.3.7-.7.7ZM36.8 11.8c0 1 .3 1.2 1.2 1.2h5.6c-.8-.7-1.7-1.3-2.7-1.7h-1.1c-.8 0-1.2-.2-1.3-.7l-1.7-.2v1.4ZM38.6 2c.2-.2.6-.3 1-.3H51c1.1 0 1.5.3 1.5 1.5V10l1.5 2.4V1.2c0-1-.2-1.2-1.2-1.2H38c-1 0-1.3.2-1.3 1.2v.7l1.8.1Z" fill="#001E42"/><path d="M49 9a18 18 0 0 0-25.3 0c-7 7-7 18.1 0 25a18 18 0 0 0 22.8 2l16.4 18c1.5 1.5 4 1.3 5.8-.4 1.8-1.8 2-4.3.5-5.8L50.9 31.7c5-6.9 4.3-16.5-2-22.6Zm-3.2 21.8a13.4 13.4 0 0 1-18.9 0 13 13 0 0 1 0-18.6 13.4 13.4 0 0 1 18.9 0 13 13 0 0 1 0 18.6Z" fill="#001E42"/></svg>