<svg width="64" height="64" fill="none" xmlns="http://www.w3.org/2000/svg"><path d="M55.4 25.5h3.4c1 0 1.3.4 1.3 1.4V29c0 .7-.3 1.1-1 1.1h-9.3c-.3 0-.6-.4-1-.6-.2-.2-.4-.4-.6-.4h-9.3c-.3 0-.6.1-.7.3-.3.6-.8.7-1.3.7h-3c-.8 0-.6.5-.6 1s0 .8.7.8h3.3c.5 0 .9.1 1.1.6l1.2 1.6c.2.3.3.6.3 1v27.5c0 1-.3 1.3-1.3 1.3H25.5c-1 0-1.2-.3-1.2-1.2V35c0-.3.3-.7.5-1l.7-1.3c.4-.7.9-.9 1.6-.8h3.2c.7 0 .6-.5.6-1 0-.4 0-.8-.6-.8H28c-.5 0-1-.1-1.2-.7 0-.2-.4-.3-.6-.3H16l-.7.4c-.3.2-.7.6-1 .6h-9c-.8 0-1.2-.4-1.2-1v-2.6c0-.7.4-1 1.1-1h3c.5 0 .8-.2.7-.7v-.5c0-.5-.1-.7-.7-.7H1.3c-1.1 0-1.3-.2-1.3-1.3v-2.6c0-.8.2-1 1-1h22.5c1 0 1.2.1 1.2 1.2v2.6c0 .9-.2 1-1 1H12.2c-.3 0-.9.1-1 .3v1.4l.6.2h2.4c.3 0 .8.3 1 .5.2.5.5.6 1 .6H26c.4 0 .7-.1 1-.5 0-.3.5-.5.8-.5h9.2c.4 0 .8.2 1 .5.2.4.5.5.9.5h9.2c.2 0 .4-.3.7-.5.3-.2.7-.5 1-.5h2.4c.5 0 .7-.2.6-.7v-.4c.1-.6-.1-.8-.8-.8H40.6c-1.2 0-1.3-.2-1.3-1.3V20c0-1 .2-1.2 1.3-1.2H63c.7 0 1 .3 1 1v2.9c0 .7-.3 1-1 1h-6.7c-1 0-1 0-1 1v.8ZM32 43h4.6c.9 0 1.1-.3 1.1-1.1v-4.6c0-.8-.2-1-1-1.1h-9.2c-.8 0-1 .3-1 1.1V42c0 .8.2 1 1 1l4.5.1Zm0 9.4h4.8c.9 0 1 0 1-1 0-.9-.1-1-1-1h-9.5c-.8 0-1 .3-1 1 .1.6.1 1 1 1H32Zm0 4.5h4.8c.8 0 1-.1 1-1 0-1-.1-1-1-1h-9.5c-.8 0-.9 0-.9 1 0 .9.1 1 1 1H32Zm0-9h5c.7.1.7-.3.7-.9 0-.6 0-1-.8-1h-9.7c-.8 0-.8.5-.8 1 0 .6 0 1 .8 1h4.9ZM45 20h-3c-.6 0-.8.3-.8.8v.8c0 .8.1 1 1 1h5.2c1.3 0 1.3 0 1.3-1.4v-.3c0-.6-.3-.8-.9-.8H45Zm-25.7 2.6h2.7c1 0 1-.2 1-1.1V21c.1-.7-.2-1-.9-1h-5.2c-1.3 0-1.4 0-1.4 1.4v.2c0 .6.3.9.9.9h2.9Zm13 36a2 2 0 1 0-.2 4.1 2 2 0 0 0 2.2-2 2 2 0 0 0-2-2ZM10 22.2c.6 0 1-.4 1-1s-.5-1-1-1a1 1 0 0 0-1 1c0 .6.5 1 1 1Zm45-1c0-.6-.5-1-1-1a1 1 0 0 0-1 1c0 .6.5 1 1 1 .6 0 1-.4 1-1Zm6.2 1c.5 0 1-.4 1-1 0-.5-.5-1-1-1a1 1 0 0 0-1 1c0 .6.4 1 1 1Zm-57.3-1c0-.6-.5-1-1-1a1 1 0 0 0-1 1c0 .6.4 1 1 1 .5 0 1-.4 1-1Zm3.5 0c0-.5-.4-1-1-1a1 1 0 0 0-1 1c0 .6.5 1 1 1 .6 0 1-.4 1-1Zm51.2 0c0-.5-.4-1-1-1a1 1 0 0 0-1 1c0 .6.4 1 1 1 .5 0 1-.4 1-1ZM12.4 0h9.3c1.4 0 1.6.3 1.6 1.6v13.6c0 1.3-.2 1.6-1.5 1.6H2.9c-1.2 0-1.5-.3-1.5-1.5V1.5C1.4.3 1.7 0 3 0h9.4Zm0 2.2H5c-1.1 0-1.6.5-1.6 1.7v9c0 1.3.5 1.8 1.8 1.8h14.3c1.4 0 1.9-.5 2-2V4.1c-.1-1.4-.6-2-2.1-2h-7ZM51.8 0H61c1.2 0 1.5.3 1.5 1.4v14c0 1-.3 1.4-1.4 1.4h-19c-1.2 0-1.5-.3-1.5-1.6V1.6C40.7.3 41 0 42.3 0h9.5Zm-.1 14.7h7c1.4 0 2-.5 2-2V4c0-1.3-.6-1.8-2-1.8H44.6c-1.4 0-1.9.5-1.9 1.8v8.8c0 1.4.6 1.9 2 1.9h7Z" fill="#001E42"/></svg>