<svg width="63" height="57" fill="none" xmlns="http://www.w3.org/2000/svg"><path d="m25.9 51.9-1.5-.7c-2.4-1-4.4-3-5.7-5.4l-.5-1-.2-.4H5.4c-1.4 0-1.6-.2-1.6-1.8s.1-1.8 1.5-1.8h11.8c-.2-1.4 0-2.9.3-4.4H5.3c-1.5 0-1.5-.8-1.5-1.9 0-1.1.3-1.7 1.5-1.7h13.5a13 13 0 0 1 4.2-4.3H5.2c-1.3 0-1.4-.7-1.4-1.7s0-1.8 1.4-1.8h17.2c1.4 0 1.5.8 1.5 1.8 0 .5 0 1-.3 1.3a13 13 0 0 1 4-1.5V14.3c-.8-.8-1.5-3.4-1.8-4.6-.1-.4-.1-1 .1-1.3.4-.8 1-2 1.6-2.5l.1-.2c0-.6-.2-1.2-.5-1.7l-2-2.9a2 2 0 0 0-2-1H5C3.7-.2 3 .2 2.3 1.4L.9 3.7C.5 4.3 0 5 0 5.7v49.2c0 1.5.6 2 2.2 2h23.2c1.7 0 2.2-.4 2.2-2.1v-2.4l-1.7-.5ZM3.9 9.6c0-1.6.4-2 1.9-2h16c1.6 0 2 .4 2 2v8c0 1.6-.4 2-2 2h-16c-1.5 0-2-.4-2-2v-8Zm9.8 45a3.7 3.7 0 1 1 .3-7.3c2 0 3.6 1.7 3.5 3.7 0 2-1.7 3.6-3.8 3.6Z" fill="#001E42"/><path d="M21.8 43a9 9 0 0 1 14-10.4 9 9 0 0 1 1.8 11.7A8.8 8.8 0 0 1 27.3 48l.3-.3 4.1-4.2c.8-.8.8-1.5 0-2.3l-3-3c-.6-.7-1.4-.7-2.1 0l-4.4 4.4-.4.4ZM48.7 10.8l-10 10 3.1 1a3 3 0 0 1 2 2c.2.8.2 1.5-.4 2-.5.6-1.3.7-2 .4L35 23.6c-1-.4-1.6-1.2-1.6-2.4l-.2-7c0-.8.2-1.3.7-1.8l6.8-6.9c.8-.8 1.9-.7 2.9.3L47 9.2l1.7 1.6Z" fill="#001E42"/><path d="M45.4 22.5c-.6-1.2-1.6-2-3.1-2.6l2.5-2.5 8.6-8.6C55 7.2 56.8 6.7 59 7.5c2 .8 3.1 2.4 3.3 4.5 0 1.2-.2 2.3-1 3.2l-2.7 3-1.6-1.7a3.9 3.9 0 0 0-4.4-.7c-.8.4-1.5 1.1-2 2 0 .2-.2.4-.4.5-1 .5-1.6 1.2-2.1 2l-.3.5-2.3 1.7Z" fill="#001E42"/><path d="M47.1 25.2c-.4-1.6 1-3 2.6-2.6-.2-.8 0-1.4.5-2 .6-.6 1.3-.7 2-.6v-.3c-.2-1 .4-1.7 1.1-2.2.6-.4 1.5-.3 2.2.3l3.6 3.6c.6.7.7 1.7.3 2.3-.6.9-1.2 1.3-2.2 1H57c0 2-.5 2.6-2.6 2.7 0 2-.8 2.8-2.6 2.5v.3c.2 1-.3 1.7-1 2.2-.8.5-1.6.3-2.2-.3a64.5 64.5 0 0 1-3.7-3.7c-.5-.6-.7-1.4-.2-2.1.5-.8 1.1-1.4 2.2-1.1h.2ZM45.1 31.5l-4.8 4.8a11 11 0 0 0-7.1-7.1l1-1.1 1.5-1.5c.3-.3.5-.4.8-.2l3.9 1.5 2 .4.4.2c.4 1 1.2 1.8 2 2.6l.3.4ZM29.8 9.8c.2-.3.3-.8.6-1L37 1.8c.4-.4.8-.5 1.3-.4 1.1 0 2.2 1 2.2 2.2 0 .4-.2 1-.5 1.2l-6.8 6.9c-.4.4-.8.5-1.4.4-1.1-.2-2-1.2-2.1-2.4Z" fill="#001E42"/></svg>