<svg width="60" height="55" fill="none" xmlns="http://www.w3.org/2000/svg"><path d="M29.7 54.1H4c-2 0-3.6-1.2-4-3a3.7 3.7 0 0 1 3.8-4.4h51.5c1.6 0 2.8.6 3.6 1.9 1.5 2.4-.3 5.4-3.2 5.5h-26Zm16-5.9c-1.2 0-2.2 1-2.2 2.3a2.3 2.3 0 0 0 4.5 0c0-1.3-1-2.3-2.3-2.3Zm7.8 2.3a2.2 2.2 0 1 0-4.5 0 2.2 2.2 0 0 0 4.5 0ZM21.9 38.5A8.2 8.2 0 0 1 24 29a8.6 8.6 0 0 1 11 0c3.2 2.8 4 7.4 1.7 10.9a8.4 8.4 0 0 1-9.8 3.4l.3-.3 3.9-3.9c.7-.7.7-1.4 0-2.1L28.4 34c-.7-.6-1.4-.6-2 0l-4.2 4c0 .2-.2.3-.3.4ZM47.2 8.7l-9.4 9.2 3 1c.9.3 1.5 1 1.8 2 .2.6.2 1.2-.3 1.7-.6.6-1.2.6-1.9.4l-6-2.4c-1-.4-1.6-1.2-1.6-2.3l-.2-6.5c0-.7.2-1.2.6-1.7l6.5-6.3c.7-.8 1.8-.7 2.7.2l3.3 3.2 1.5 1.5ZM27 7l.4 2.7H10.3c-2 0-3 1-3 3v33.2H4.7V12.4C4.6 9.2 7 7 10.1 7H27Z" fill="#001E42"/><path d="M44.1 19.6c-.5-1.1-1.5-2-3-2.5l2.5-2.3 8.1-8c1.5-1.5 3.2-2 5.2-1.2 2 .7 3 2.2 3 4.2a4 4 0 0 1-.8 3l-2.6 2.7L55 14a3.7 3.7 0 0 0-4.3-.7c-.8.4-1.4 1-1.8 1.8 0 .2-.3.4-.4.5-.9.5-1.6 1.1-2 2l-.3.3-2.2 1.7Z" fill="#001E42"/><path d="M45.7 22c-.3-1.5 1-2.7 2.5-2.3-.2-.8 0-1.4.5-2 .5-.5 1.2-.6 2-.5V17c-.3-1 .2-1.6 1-2 .5-.4 1.3-.4 2 .2l3.4 3.4c.6.6.7 1.5.3 2-.6.8-1.1 1.2-2.1 1H55c0 1.9-.5 2.4-2.4 2.5 0 1.8-.8 2.6-2.5 2.3v.3c.2 1-.3 1.6-1 2-.7.4-1.5.3-2-.2a59.8 59.8 0 0 1-3.5-3.5c-.5-.5-.7-1.3-.3-2 .5-.7 1.1-1.2 2.1-1h.2ZM54.8 26.5V46H52V29.6c0-.6.2-1 .7-1.3l2-1.8ZM43.9 27.9l-4.6 4.5a10.3 10.3 0 0 0-6.7-6.7l1-1 1.4-1.4c.2-.3.4-.3.8-.2l3.6 1.4 1.8.4.4.2c.4 1 1.2 1.7 2 2.4l.3.4ZM29.3 7.8c.2-.4.3-.8.6-1L36.3.4c.3-.3.8-.4 1.2-.4 1 .1 2 1 2 2.1 0 .4-.1.9-.4 1.1-2 2.2-4.2 4.3-6.4 6.4-.4.4-.8.5-1.3.4-1.1-.2-2-1.2-2-2.2ZM21.3 21.2l-8.8-8.9V25l3.6-1.5 2.2 4.6 2-1-2-4.5 3-1.3Z" fill="#001E42"/></svg>