<svg width="126" height="42" fill="none" xmlns="http://www.w3.org/2000/svg"><path d="M0 28.2V.8h9.4v27.4H0ZM28.4 8.6v19.6H19V8.6h-6.8V.8h23v7.8h-6.8Z" fill="#fff"/><path d="M33 20.5v-6.7H44v6.7H33Z" fill="#fff"/><path d="M56.2 29a18.6 18.6 0 0 1-11.6-4.2l5.6-6c.7.7 1.6 1.3 2.7 1.8s2.2.8 3.3.8c1.4 0 2-.4 2-1.3 0-.5-.2-.9-.8-1.2l-4-1.5c-2.2-.7-4-1.6-5.3-2.9-1.2-1.2-1.9-2.9-1.9-5 0-1.7.4-3.2 1-4.4a8 8 0 0 1 2.8-3c1.2-.7 2.4-1.2 3.7-1.6a16 16 0 0 1 14.7 3.6l-5.8 5.8a6.5 6.5 0 0 0-2.2-1.7 6 6 0 0 0-2.6-.6c-1.5 0-2.2.4-2.2 1.2 0 .4.1.7.5.9l2.2.8a138.8 138.8 0 0 0 3.6 1.3 12.9 12.9 0 0 1 3.3 2 6.3 6.3 0 0 1 2.1 3.2 8.6 8.6 0 0 1-3 9.4c-2.3 1.7-5 2.6-8 2.6ZM83.2 19.4h-2.6v8.8h-9.3V.8h11.9c1.5 0 2.9.1 4.2.4 1.2.4 2.4.8 3.5 1.5a7 7 0 0 1 2.7 2.9c.6 1.2 1 2.7 1 4.4 0 1.6-.4 3-1 4.3a7.7 7.7 0 0 1-2.6 3 12 12 0 0 1-3.6 1.6c-1.3.3-2.7.5-4.2.5Zm-.7-11.5h-2v4.5h2c.8 0 1.5-.2 2-.6.6-.4.8-1 .8-1.7 0-1.4-1-2.2-2.8-2.2ZM114.6 28.2l-7.4-11v11H98V.8h9v10h.1l7.4-10h11L115 13.3l10.9 15h-11.4ZM3 35.9l-.5.5-.3-.2a1 1 0 0 0-1 0c-.2.1-.2.3-.2.4v.3l.2.2h.2a14 14 0 0 0 1 .5l.4.2.2.3v.5c0 .4-.1.7-.4 1a2.2 2.2 0 0 1-2 .2l-.6-.5.5-.5.5.3.5.2c.2 0 .4 0 .5-.2.2-.1.3-.3.3-.5v-.2l-.2-.1-.1-.1-.2-.1-.3-.1-.2-.1a1.9 1.9 0 0 1-.7-.4.9.9 0 0 1-.3-.3l-.1-.5c0-.4.1-.7.4-1 .4-.2.7-.3 1.2-.3.2 0 .4 0 .6.2.3 0 .5.1.6.3ZM5 39.8v-4.3h.8v4.3H5ZM8 39.8v-4.3H9l1.1 3 1.2-3h1.2v4.3h-.8v-3.4l-1.3 3.4H10l-1.3-3.4v3.4h-.8ZM14.7 39.8v-4.3h1.4c1.1 0 1.6.5 1.6 1.3 0 .4-.1.7-.4 1L16 38h-.6v1.8h-.8Zm.8-2.4h.5c.7 0 1-.2 1-.6 0-.3-.1-.4-.3-.5l-.6-.1h-.6v1.2ZM19.6 39.8v-4.3h.8v3.6h1.8v.7h-2.6ZM24 39.8v-4.3h2.8v.7h-2v1h1.9v.7h-2v1.2H27v.7h-3ZM31.6 39.8v-4.3H33c1 0 1.6.5 1.6 1.3 0 .4-.1.7-.4 1l-1.3.2h-.5v1.8h-.8Zm.8-2.4h.5c.6 0 1-.2 1-.6 0-.3-.1-.4-.3-.5l-.7-.1h-.5v1.2ZM36.3 37.7c0-.7.2-1.3.6-1.7.5-.4 1-.6 1.7-.6s1.2.2 1.7.6c.4.4.6 1 .6 1.7 0 .6-.2 1.2-.6 1.6-.5.4-1 .6-1.7.6s-1.2-.2-1.6-.6c-.5-.4-.7-1-.7-1.6Zm.8 0c0 .4.2.8.4 1 .3.4.7.5 1.1.5.4 0 .8-.1 1-.4a1.6 1.6 0 0 0 0-2.2c-.2-.4-.6-.5-1-.5s-.8.1-1 .4c-.3.3-.5.7-.5 1.2ZM43.7 39.8l-1.3-4.3h.9l.8 3.2 1-3.2h.7l1 3.2.8-3.2h.9l-1.3 4.3h-.7l-1-3.2-1 3.2h-.8ZM50.2 39.8v-4.3H53v.7h-2v1h1.9v.7h-2v1.2h2.2v.7h-3ZM55 39.8v-4.3h1.6c.3 0 .5 0 .7.2.3 0 .5.2.6.4.2.1.3.4.3.7 0 .3-.1.5-.3.7l-.7.4 1.1 1.9h-1l-.9-1.8h-.6v1.8h-.7Zm.8-2.4h.7c.6 0 .9-.2.9-.6 0-.3 0-.4-.3-.5l-.6-.1h-.7v1.2ZM62.6 37.7c0-.7.2-1.3.7-1.7.4-.4 1-.6 1.6-.6.7 0 1.3.2 1.7.6.4.4.7 1 .7 1.7 0 .6-.3 1.2-.7 1.6-.4.4-1 .6-1.7.6-.6 0-1.2-.2-1.6-.6-.5-.4-.7-1-.7-1.6Zm.9 0c0 .4.1.8.4 1 .2.4.6.5 1 .5.5 0 .8-.1 1.1-.4.3-.3.4-.7.4-1.1 0-.5-.1-.9-.4-1.2-.3-.3-.6-.4-1-.4-.5 0-.9.1-1.1.4-.3.3-.4.7-.4 1.2ZM69.2 39.8v-4.3H72v.7h-2v1.2h1.9v.6h-2v1.8h-.7ZM76.6 39.8v-4.3h.8v1.9l1.8-1.9h1l-2 2 2.2 2.3h-1.1l-1.9-2.1v2.1h-.8ZM82 39.8v-4.3h1l2 3.2v-3.2h.8v4.3h-1l-2-3.3v3.3H82ZM87.7 37.7c0-.7.3-1.3.7-1.7.4-.4 1-.6 1.6-.6.7 0 1.3.2 1.7.6.4.4.7 1 .7 1.7 0 .6-.3 1.2-.7 1.6-.4.4-1 .6-1.7.6a2.1 2.1 0 0 1-2.3-2.2Zm.9 0c0 .4.1.8.4 1 .3.4.6.5 1 .5.5 0 .8-.1 1.1-.4.3-.3.4-.7.4-1.1 0-.5-.1-.9-.4-1.2-.3-.3-.6-.4-1-.4-.5 0-.8.1-1.1.4-.3.3-.4.7-.4 1.2ZM95.1 39.8 94 35.5h.8l.8 3.2 1-3.2h.8l1 3.2.8-3.2h.8l-1.3 4.3H98l-1-3.2-1 3.2H95ZM101.6 39.8v-4.3h.8v3.6h1.8v.7h-2.6ZM106 39.8v-4.3h2.8v.7h-2.1v1h2v.7h-2v1.2h2.2v.7h-3ZM110.8 39.8v-4.3h1.6c.3 0 .5 0 .8.2.3 0 .5.1.8.3l.5.7c.2.3.2.6.2 1 0 .3 0 .6-.2 1l-.5.6a2.6 2.6 0 0 1-1.6.5h-1.6Zm.8-.7h.6a2.4 2.4 0 0 0 1-.2l.4-.2.2-.4.1-.6c0-1-.5-1.5-1.7-1.5h-.6v3ZM120.4 37.4v2.2c-.4.2-1 .3-1.6.3-.7 0-1.2-.2-1.7-.6-.4-.4-.6-1-.6-1.6 0-.7.2-1.2.6-1.7.5-.4 1-.6 1.7-.6.3 0 .6 0 1 .2.2 0 .5.2.6.4l-.5.5-.5-.3h-.6c-.4 0-.8 0-1 .4-.3.2-.5.6-.5 1 0 .5.2.9.4 1.2.3.3.7.4 1.1.4l.9-.1v-1h-.9v-.7h1.6ZM122.6 39.8v-4.3h2.8v.7h-2v1h2v.7h-2v1.2h2.1v.7h-3ZM125.5 41.6H0v.4h125.5v-.4Z" fill="#00FEFF"/></svg>