<svg width="164" height="197" fill="none" xmlns="http://www.w3.org/2000/svg"><path d="m114.4 61.1 8.3-16a80.3 80.3 0 0 1 37.1 95.9 81.8 81.8 0 0 1-112.7 48.2 81.4 81.4 0 0 1 68.1-147.8c-2.5 5.3-5.2 10.6-8 16.2a63.4 63.4 0 0 0-54.3 2A60.8 60.8 0 0 0 20 102.8a62.5 62.5 0 0 0 37.9 71c29.2 12 60.7.7 77.2-23.7A63.4 63.4 0 0 0 114.4 61Z" fill="#00FEFF"/><path d="m98.4 74.4-7.5 15c-.3.6-1.8 1.2-2.6 1a25.9 25.9 0 0 0-30 15.1c-4 9.9-1.1 23.1 7.2 29.8 11.9 9.6 27.5 7.8 36.9-4.1 8-10.1 6.8-25.6-2.9-34.4-2.1-2-2.6-3.3-1-6 2.5-4 4.4-8.5 6.6-12.8 15.7 8.3 26 31.4 18.3 52.5a43.8 43.8 0 0 1-59 25.8c-22.9-10.1-33-38-21.8-60.6a43.5 43.5 0 0 1 55.8-21.3Z" fill="#001E42"/><path d="M147 8.5 139.8 23l-.8 1.4c-2.4 4.8-2.4 5-7.8 4-2.2-.5-3.2.2-4.2 2l-38.5 74.8L83 116l-1-.1c0-.8-.1-1.6.2-2.3l8-16.2 15.6-31.3 19.6-39.5c-1.4-1.7-3-3.4-4.3-5.1-.5-.6-1-1.7-.7-2.2 3.1-6.4 6.4-12.8 9.7-19.3 1 1.1 2.1 2 2.7 3 2.6 4.7 7 5.4 11.7 5.3l2.5.2Z" fill="#001E42"/><path d="m83.8 104.2-6 11.8 6.1 3.2 6.4-11.6c4 2.5 5 9.7 2 14-3.5 4.8-10 6.8-15.2 4.4a11.5 11.5 0 0 1-6.5-14.2c1.8-5.2 7.3-8.6 13.2-7.6Z" fill="#00FEFF"/></svg>